# MagicaVoxel @ Ephtracy

# group
o 

# material
mtllib Box11.mtl
usemtl palette

# normals
vn -1 0 0
vn 1 0 0
vn 0 0 1
vn 0 0 -1
vn 0 -1 0
vn 0 1 0

# texcoords
vt 0.791016 0.5
vt 0.853516 0.5
vt 0.916016 0.5
vt 0.978516 0.5
vt 0.982422 0.5

# verts
v -0.4 0 0.4
v -0.4 0 -0.4
v -0.4 0.2 0.4
v -0.4 0.2 -0.4
v -0.4 0.3 0.4
v -0.4 0.3 0.2
v -0.4 0.3 -0.2
v -0.4 0.3 -0.4
v -0.4 0.5 0.1
v -0.4 0.5 -0.1
v -0.4 0.6 0.2
v -0.4 0.6 0.1
v -0.4 0.6 -0.1
v -0.4 0.6 -0.2
v -0.3 0.6 0.2
v -0.3 0.6 0.1
v -0.3 0.6 -0.1
v -0.3 0.6 -0.2
v -0.3 0.7 0.2
v -0.3 0.7 0.1
v -0.3 0.7 -0.1
v -0.3 0.7 -0.2
v -0.1 0.6 0.2
v -0.1 0.6 0.1
v -0.1 0.6 -0.1
v -0.1 0.6 -0.2
v -0.1 0.7 0.2
v -0.1 0.7 0.1
v -0.1 0.7 -0.1
v -0.1 0.7 -0.2
v 0.1 0.2 -0.3
v 0.1 0.2 -0.4
v 0.1 0.3 -0.3
v 0.1 0.3 -0.4
v 0.2 0.6 0.2
v 0.2 0.6 0.1
v 0.2 0.6 -0.1
v 0.2 0.6 -0.2
v 0.2 0.7 0.2
v 0.2 0.7 0.1
v 0.2 0.7 -0.1
v 0.2 0.7 -0.2
v 0.3 0.2 0.3
v 0.3 0.2 -0.3
v 0.3 0.3 0.3
v 0.3 0.3 0.2
v 0.3 0.3 -0.2
v 0.3 0.3 -0.3
v 0.3 0.4 0.2
v 0.3 0.4 -0.2
v -0.3 0.2 0.3
v -0.3 0.2 -0.3
v -0.3 0.3 0.3
v -0.3 0.3 0.2
v -0.3 0.3 -0.2
v -0.3 0.3 -0.3
v -0.3 0.4 0.2
v -0.3 0.4 -0.2
v -0.2 0.6 0.2
v -0.2 0.6 0.1
v -0.2 0.6 -0.1
v -0.2 0.6 -0.2
v -0.2 0.7 0.2
v -0.2 0.7 0.1
v -0.2 0.7 -0.1
v -0.2 0.7 -0.2
v -0.1 0.2 -0.3
v -0.1 0.2 -0.4
v -0.1 0.3 -0.3
v -0.1 0.3 -0.4
v 0.1 0.6 0.2
v 0.1 0.6 0.1
v 0.1 0.6 -0.1
v 0.1 0.6 -0.2
v 0.1 0.7 0.2
v 0.1 0.7 0.1
v 0.1 0.7 -0.1
v 0.1 0.7 -0.2
v 0.3 0.6 0.2
v 0.3 0.6 0.1
v 0.3 0.6 -0.1
v 0.3 0.6 -0.2
v 0.3 0.7 0.2
v 0.3 0.7 0.1
v 0.3 0.7 -0.1
v 0.3 0.7 -0.2
v 0.4 0 0.4
v 0.4 0 -0.4
v 0.4 0.2 0.4
v 0.4 0.2 -0.4
v 0.4 0.3 0.4
v 0.4 0.3 0.2
v 0.4 0.3 -0.2
v 0.4 0.3 -0.4
v 0.4 0.5 0.1
v 0.4 0.5 -0.1
v 0.4 0.6 0.2
v 0.4 0.6 0.1
v 0.4 0.6 -0.1
v 0.4 0.6 -0.2
v -0.4 0 0.4
v -0.4 0.2 0.4
v -0.4 0.3 0.4
v 0.4 0 0.4
v 0.4 0.2 0.4
v 0.4 0.3 0.4
v -0.4 0.3 0.2
v -0.4 0.6 0.2
v -0.3 0.3 0.2
v -0.3 0.4 0.2
v -0.3 0.5 0.2
v -0.3 0.6 0.2
v -0.3 0.7 0.2
v -0.2 0.6 0.2
v -0.2 0.7 0.2
v -0.1 0.6 0.2
v -0.1 0.7 0.2
v 0 0.4 0.2
v 0 0.5 0.2
v 0 0.6 0.2
v 0.1 0.4 0.2
v 0.1 0.5 0.2
v 0.1 0.6 0.2
v 0.1 0.7 0.2
v 0.2 0.5 0.2
v 0.2 0.6 0.2
v 0.2 0.7 0.2
v 0.3 0.3 0.2
v 0.3 0.4 0.2
v 0.3 0.5 0.2
v 0.3 0.6 0.2
v 0.3 0.7 0.2
v 0.4 0.3 0.2
v 0.4 0.6 0.2
v -0.4 0.5 -0.1
v -0.4 0.6 -0.1
v -0.3 0.6 -0.1
v -0.3 0.7 -0.1
v -0.2 0.6 -0.1
v -0.2 0.7 -0.1
v -0.1 0.5 -0.1
v -0.1 0.6 -0.1
v -0.1 0.7 -0.1
v 0 0.5 -0.1
v 0 0.7 -0.1
v 0.1 0.5 -0.1
v 0.1 0.6 -0.1
v 0.1 0.7 -0.1
v 0.2 0.5 -0.1
v 0.2 0.6 -0.1
v 0.2 0.7 -0.1
v 0.3 0.6 -0.1
v 0.3 0.7 -0.1
v 0.4 0.5 -0.1
v 0.4 0.6 -0.1
v -0.3 0.2 -0.3
v -0.3 0.3 -0.3
v -0.2 0.2 -0.3
v -0.2 0.3 -0.3
v -0.1 0.2 -0.3
v -0.1 0.3 -0.3
v 0.1 0.2 -0.3
v 0.1 0.3 -0.3
v 0.2 0.2 -0.3
v 0.2 0.3 -0.3
v 0.3 0.2 -0.3
v 0.3 0.3 -0.3
v -0.3 0.2 0.3
v -0.3 0.3 0.3
v 0.3 0.2 0.3
v 0.3 0.3 0.3
v -0.4 0.5 0.1
v -0.4 0.6 0.1
v -0.3 0.5 0.1
v -0.3 0.6 0.1
v -0.3 0.7 0.1
v -0.2 0.6 0.1
v -0.2 0.7 0.1
v -0.1 0.6 0.1
v -0.1 0.7 0.1
v 0 0.5 0.1
v 0 0.6 0.1
v 0.1 0.6 0.1
v 0.1 0.7 0.1
v 0.2 0.5 0.1
v 0.2 0.6 0.1
v 0.2 0.7 0.1
v 0.3 0.5 0.1
v 0.3 0.6 0.1
v 0.3 0.7 0.1
v 0.4 0.5 0.1
v 0.4 0.6 0.1
v -0.4 0.3 -0.2
v -0.4 0.6 -0.2
v -0.3 0.3 -0.2
v -0.3 0.4 -0.2
v -0.3 0.6 -0.2
v -0.3 0.7 -0.2
v -0.2 0.4 -0.2
v -0.2 0.5 -0.2
v -0.2 0.6 -0.2
v -0.2 0.7 -0.2
v -0.1 0.4 -0.2
v -0.1 0.5 -0.2
v -0.1 0.6 -0.2
v -0.1 0.7 -0.2
v 0 0.4 -0.2
v 0 0.5 -0.2
v 0 0.7 -0.2
v 0.1 0.4 -0.2
v 0.1 0.5 -0.2
v 0.1 0.6 -0.2
v 0.1 0.7 -0.2
v 0.2 0.5 -0.2
v 0.2 0.6 -0.2
v 0.2 0.7 -0.2
v 0.3 0.3 -0.2
v 0.3 0.4 -0.2
v 0.3 0.6 -0.2
v 0.3 0.7 -0.2
v 0.4 0.3 -0.2
v 0.4 0.6 -0.2
v -0.4 0 -0.4
v -0.4 0.2 -0.4
v -0.4 0.3 -0.4
v -0.2 0.2 -0.4
v -0.2 0.3 -0.4
v -0.1 0.1 -0.4
v -0.1 0.2 -0.4
v -0.1 0.3 -0.4
v 0.1 0.1 -0.4
v 0.1 0.2 -0.4
v 0.1 0.3 -0.4
v 0.2 0.2 -0.4
v 0.2 0.3 -0.4
v 0.4 0 -0.4
v 0.4 0.2 -0.4
v 0.4 0.3 -0.4
v -0.4 0 0.4
v 0.4 0 0.4
v -0.4 0 -0.4
v 0.4 0 -0.4
v -0.3 0.4 0.2
v 0 0.4 0.2
v 0.1 0.4 0.2
v 0.3 0.4 0.2
v 0 0.4 0.1
v 0.1 0.4 0.1
v -0.2 0.4 -0.1
v -0.1 0.4 -0.1
v 0 0.4 -0.1
v 0.1 0.4 -0.1
v -0.3 0.4 -0.2
v -0.2 0.4 -0.2
v -0.1 0.4 -0.2
v 0 0.4 -0.2
v 0.1 0.4 -0.2
v 0.3 0.4 -0.2
v -0.3 0.2 0.3
v 0.3 0.2 0.3
v -0.3 0.2 -0.3
v -0.2 0.2 -0.3
v -0.1 0.2 -0.3
v 0.1 0.2 -0.3
v 0.2 0.2 -0.3
v 0.3 0.2 -0.3
v -0.1 0.2 -0.4
v 0.1 0.2 -0.4
v -0.4 0.3 0.4
v 0.4 0.3 0.4
v -0.3 0.3 0.3
v 0.3 0.3 0.3
v -0.4 0.3 0.2
v -0.3 0.3 0.2
v 0.3 0.3 0.2
v 0.4 0.3 0.2
v -0.4 0.3 -0.2
v -0.3 0.3 -0.2
v 0.3 0.3 -0.2
v 0.4 0.3 -0.2
v -0.3 0.3 -0.3
v -0.2 0.3 -0.3
v -0.1 0.3 -0.3
v 0.1 0.3 -0.3
v 0.2 0.3 -0.3
v 0.3 0.3 -0.3
v -0.4 0.3 -0.4
v -0.2 0.3 -0.4
v -0.1 0.3 -0.4
v 0.1 0.3 -0.4
v 0.2 0.3 -0.4
v 0.4 0.3 -0.4
v -0.4 0.5 0.1
v -0.3 0.5 0.1
v 0 0.5 0.1
v 0.2 0.5 0.1
v 0.3 0.5 0.1
v 0.4 0.5 0.1
v -0.4 0.5 -0.1
v -0.1 0.5 -0.1
v 0 0.5 -0.1
v 0.1 0.5 -0.1
v 0.2 0.5 -0.1
v 0.4 0.5 -0.1
v -0.4 0.6 0.2
v -0.3 0.6 0.2
v -0.2 0.6 0.2
v -0.1 0.6 0.2
v 0.1 0.6 0.2
v 0.2 0.6 0.2
v 0.3 0.6 0.2
v 0.4 0.6 0.2
v -0.4 0.6 0.1
v -0.3 0.6 0.1
v -0.2 0.6 0.1
v -0.1 0.6 0.1
v 0.1 0.6 0.1
v 0.2 0.6 0.1
v 0.3 0.6 0.1
v 0.4 0.6 0.1
v -0.4 0.6 -0.1
v -0.3 0.6 -0.1
v -0.2 0.6 -0.1
v -0.1 0.6 -0.1
v 0.1 0.6 -0.1
v 0.2 0.6 -0.1
v 0.3 0.6 -0.1
v 0.4 0.6 -0.1
v -0.4 0.6 -0.2
v -0.3 0.6 -0.2
v -0.2 0.6 -0.2
v -0.1 0.6 -0.2
v 0.1 0.6 -0.2
v 0.2 0.6 -0.2
v 0.3 0.6 -0.2
v 0.4 0.6 -0.2
v -0.3 0.7 0.2
v -0.2 0.7 0.2
v -0.1 0.7 0.2
v 0.1 0.7 0.2
v 0.2 0.7 0.2
v 0.3 0.7 0.2
v -0.3 0.7 0.1
v -0.2 0.7 0.1
v -0.1 0.7 0.1
v 0.1 0.7 0.1
v 0.2 0.7 0.1
v 0.3 0.7 0.1
v -0.3 0.7 -0.1
v -0.2 0.7 -0.1
v -0.1 0.7 -0.1
v 0 0.7 -0.1
v 0.1 0.7 -0.1
v 0.2 0.7 -0.1
v 0.3 0.7 -0.1
v -0.3 0.7 -0.2
v -0.2 0.7 -0.2
v -0.1 0.7 -0.2
v 0 0.7 -0.2
v 0.1 0.7 -0.2
v 0.2 0.7 -0.2
v 0.3 0.7 -0.2

# faces
f 3/3/1 2/3/1 1/3/1
f 4/3/1 2/3/1 3/3/1
f 5/2/1 4/2/1 3/2/1
f 6/2/1 4/2/1 5/2/1
f 7/2/1 4/2/1 6/2/1
f 8/2/1 4/2/1 7/2/1
f 9/4/1 7/4/1 6/4/1
f 10/4/1 7/4/1 9/4/1
f 11/4/1 9/4/1 6/4/1
f 12/4/1 9/4/1 11/4/1
f 13/4/1 7/4/1 10/4/1
f 14/4/1 7/4/1 13/4/1
f 19/5/1 16/5/1 15/5/1
f 20/5/1 16/5/1 19/5/1
f 21/4/1 18/4/1 17/4/1
f 22/4/1 18/4/1 21/4/1
f 27/4/1 24/4/1 23/4/1
f 28/4/1 24/4/1 27/4/1
f 29/5/1 26/5/1 25/5/1
f 30/5/1 26/5/1 29/5/1
f 33/3/1 32/3/1 31/3/1
f 34/3/1 32/3/1 33/3/1
f 39/4/1 36/4/1 35/4/1
f 40/4/1 36/4/1 39/4/1
f 41/4/1 38/4/1 37/4/1
f 42/4/1 38/4/1 41/4/1
f 45/2/1 44/2/1 43/2/1
f 46/2/1 44/2/1 45/2/1
f 47/2/1 44/2/1 46/2/1
f 48/2/1 44/2/1 47/2/1
f 49/4/1 47/4/1 46/4/1
f 50/4/1 47/4/1 49/4/1
f 51/2/2 52/2/2 53/2/2
f 53/2/2 52/2/2 54/2/2
f 54/2/2 52/2/2 55/2/2
f 55/2/2 52/2/2 56/2/2
f 54/4/2 55/4/2 57/4/2
f 57/4/2 55/4/2 58/4/2
f 59/5/2 60/5/2 63/5/2
f 63/5/2 60/5/2 64/5/2
f 61/4/2 62/4/2 65/4/2
f 65/4/2 62/4/2 66/4/2
f 67/3/2 68/3/2 69/3/2
f 69/3/2 68/3/2 70/3/2
f 71/4/2 72/4/2 75/4/2
f 75/4/2 72/4/2 76/4/2
f 73/4/2 74/4/2 77/4/2
f 77/4/2 74/4/2 78/4/2
f 79/4/2 80/4/2 83/4/2
f 83/4/2 80/4/2 84/4/2
f 81/4/2 82/4/2 85/4/2
f 85/4/2 82/4/2 86/4/2
f 87/3/2 88/3/2 89/3/2
f 89/3/2 88/3/2 90/3/2
f 89/2/2 90/2/2 91/2/2
f 91/2/2 90/2/2 92/2/2
f 92/2/2 90/2/2 93/2/2
f 93/2/2 90/2/2 94/2/2
f 92/4/2 93/4/2 95/4/2
f 95/4/2 93/4/2 96/4/2
f 92/4/2 95/4/2 97/4/2
f 97/4/2 95/4/2 98/4/2
f 96/4/2 93/4/2 99/4/2
f 99/4/2 93/4/2 100/4/2
f 104/3/3 102/3/3 101/3/3
f 105/2/3 103/2/3 102/2/3
f 105/3/3 102/3/3 104/3/3
f 106/2/3 103/2/3 105/2/3
f 109/4/3 108/4/3 107/4/3
f 110/4/3 108/4/3 109/4/3
f 111/4/3 108/4/3 110/4/3
f 112/4/3 108/4/3 111/4/3
f 114/5/3 113/5/3 112/5/3
f 114/5/3 112/5/3 111/5/3
f 115/5/3 113/5/3 114/5/3
f 116/5/3 114/5/3 111/5/3
f 118/4/3 111/4/3 110/4/3
f 119/5/3 116/5/3 111/5/3
f 119/4/3 111/4/3 118/4/3
f 120/4/3 117/4/3 116/4/3
f 120/5/3 116/5/3 119/5/3
f 121/5/3 119/5/3 118/5/3
f 122/4/3 120/4/3 119/4/3
f 122/5/3 119/5/3 121/5/3
f 123/4/3 117/4/3 120/4/3
f 123/4/3 120/4/3 122/4/3
f 124/4/3 117/4/3 123/4/3
f 125/4/3 122/4/3 121/4/3
f 125/4/3 123/4/3 122/4/3
f 126/4/3 123/4/3 125/4/3
f 129/4/3 125/4/3 121/4/3
f 130/5/3 126/5/3 125/5/3
f 130/4/3 125/4/3 129/4/3
f 131/4/3 127/4/3 126/4/3
f 131/5/3 126/5/3 130/5/3
f 132/4/3 127/4/3 131/4/3
f 133/4/3 130/4/3 129/4/3
f 133/4/3 129/4/3 128/4/3
f 133/4/3 131/4/3 130/4/3
f 134/4/3 131/4/3 133/4/3
f 137/4/3 136/4/3 135/4/3
f 139/4/3 137/4/3 135/4/3
f 139/4/3 138/4/3 137/4/3
f 140/4/3 138/4/3 139/4/3
f 141/4/3 139/4/3 135/4/3
f 142/4/3 139/4/3 141/4/3
f 144/5/3 142/5/3 141/5/3
f 144/5/3 143/5/3 142/5/3
f 145/5/3 143/5/3 144/5/3
f 146/4/3 145/4/3 144/4/3
f 147/4/3 145/4/3 146/4/3
f 148/4/3 145/4/3 147/4/3
f 149/5/3 147/5/3 146/5/3
f 150/5/3 147/5/3 149/5/3
f 152/4/3 150/4/3 149/4/3
f 152/4/3 151/4/3 150/4/3
f 153/4/3 151/4/3 152/4/3
f 154/4/3 152/4/3 149/4/3
f 155/4/3 152/4/3 154/4/3
f 158/2/3 157/2/3 156/2/3
f 159/2/3 157/2/3 158/2/3
f 160/3/3 159/3/3 158/3/3
f 161/3/3 159/3/3 160/3/3
f 164/3/3 163/3/3 162/3/3
f 165/3/3 163/3/3 164/3/3
f 166/2/3 165/2/3 164/2/3
f 167/2/3 165/2/3 166/2/3
f 168/2/4 169/2/4 170/2/4
f 170/2/4 169/2/4 171/2/4
f 172/4/4 173/4/4 174/4/4
f 174/4/4 173/4/4 175/4/4
f 174/5/4 175/5/4 177/5/4
f 175/5/4 176/5/4 177/5/4
f 177/5/4 176/5/4 178/5/4
f 174/5/4 177/5/4 179/5/4
f 174/5/4 179/5/4 181/5/4
f 179/4/4 180/4/4 182/4/4
f 181/5/4 179/5/4 182/5/4
f 181/4/4 182/4/4 183/4/4
f 182/4/4 180/4/4 183/4/4
f 183/4/4 180/4/4 184/4/4
f 181/4/4 183/4/4 185/4/4
f 185/4/4 183/4/4 186/4/4
f 185/5/4 186/5/4 188/5/4
f 186/4/4 187/4/4 189/4/4
f 188/5/4 186/5/4 189/5/4
f 189/4/4 187/4/4 190/4/4
f 188/4/4 189/4/4 191/4/4
f 191/4/4 189/4/4 192/4/4
f 193/4/4 194/4/4 195/4/4
f 195/4/4 194/4/4 196/4/4
f 196/4/4 194/4/4 197/4/4
f 197/4/4 198/4/4 199/4/4
f 196/4/4 197/4/4 199/4/4
f 199/4/4 198/4/4 200/4/4
f 200/4/4 198/4/4 201/4/4
f 201/4/4 198/4/4 202/4/4
f 199/5/4 200/5/4 203/5/4
f 200/4/4 201/4/4 204/4/4
f 203/5/4 200/5/4 204/5/4
f 204/4/4 201/4/4 205/4/4
f 203/4/4 204/4/4 207/4/4
f 205/5/4 206/5/4 208/5/4
f 207/4/4 204/4/4 208/4/4
f 204/5/4 205/5/4 208/5/4
f 208/5/4 206/5/4 209/5/4
f 207/5/4 208/5/4 210/5/4
f 208/4/4 209/4/4 211/4/4
f 210/5/4 208/5/4 211/5/4
f 211/4/4 209/4/4 212/4/4
f 212/4/4 209/4/4 213/4/4
f 210/4/4 211/4/4 214/4/4
f 211/5/4 212/5/4 214/5/4
f 214/5/4 212/5/4 215/5/4
f 210/4/4 214/4/4 218/4/4
f 215/4/4 216/4/4 218/4/4
f 214/4/4 215/4/4 218/4/4
f 218/4/4 216/4/4 219/4/4
f 219/4/4 216/4/4 220/4/4
f 217/4/4 218/4/4 221/4/4
f 218/4/4 219/4/4 221/4/4
f 221/4/4 219/4/4 222/4/4
f 223/3/4 224/3/4 226/3/4
f 224/2/4 225/2/4 226/2/4
f 226/2/4 225/2/4 227/2/4
f 223/3/4 226/3/4 228/3/4
f 226/3/4 227/3/4 228/3/4
f 228/3/4 227/3/4 229/3/4
f 229/3/4 227/3/4 230/3/4
f 223/3/4 228/3/4 231/3/4
f 228/1/4 229/1/4 231/1/4
f 231/1/4 229/1/4 232/1/4
f 231/3/4 232/3/4 234/3/4
f 232/3/4 233/3/4 234/3/4
f 234/3/4 233/3/4 235/3/4
f 223/3/4 231/3/4 236/3/4
f 231/3/4 234/3/4 236/3/4
f 234/2/4 235/2/4 237/2/4
f 236/3/4 234/3/4 237/3/4
f 237/2/4 235/2/4 238/2/4
f 241/3/5 240/3/5 239/3/5
f 242/3/5 240/3/5 241/3/5
f 247/4/5 244/4/5 243/4/5
f 247/5/5 245/5/5 244/5/5
f 248/4/5 246/4/5 245/4/5
f 248/5/5 245/5/5 247/5/5
f 249/4/5 247/4/5 243/4/5
f 249/4/5 248/4/5 247/4/5
f 250/4/5 248/4/5 249/4/5
f 251/4/5 248/4/5 250/4/5
f 252/4/5 246/4/5 248/4/5
f 252/4/5 248/4/5 251/4/5
f 253/4/5 249/4/5 243/4/5
f 254/5/5 250/5/5 249/5/5
f 254/4/5 249/4/5 253/4/5
f 255/4/5 251/4/5 250/4/5
f 255/5/5 250/5/5 254/5/5
f 256/5/5 252/5/5 251/5/5
f 256/4/5 251/4/5 255/4/5
f 257/4/5 246/4/5 252/4/5
f 257/5/5 252/5/5 256/5/5
f 258/4/5 246/4/5 257/4/5
f 259/1/6 260/1/6 261/1/6
f 261/1/6 260/1/6 262/1/6
f 262/1/6 260/1/6 263/1/6
f 263/1/6 260/1/6 264/1/6
f 264/1/6 260/1/6 265/1/6
f 265/1/6 260/1/6 266/1/6
f 263/1/6 264/1/6 267/1/6
f 267/1/6 264/1/6 268/1/6
f 269/2/6 270/2/6 271/2/6
f 271/2/6 270/2/6 272/2/6
f 269/2/6 271/2/6 273/2/6
f 273/2/6 271/2/6 274/2/6
f 272/2/6 270/2/6 275/2/6
f 275/2/6 270/2/6 276/2/6
f 277/2/6 278/2/6 281/2/6
f 279/2/6 280/2/6 286/2/6
f 277/2/6 281/2/6 287/2/6
f 281/2/6 282/2/6 287/2/6
f 282/3/6 283/3/6 288/3/6
f 287/2/6 282/2/6 288/2/6
f 288/3/6 283/3/6 289/3/6
f 284/3/6 285/3/6 290/3/6
f 285/2/6 286/2/6 291/2/6
f 290/3/6 285/3/6 291/3/6
f 286/2/6 280/2/6 292/2/6
f 291/2/6 286/2/6 292/2/6
f 293/4/6 294/4/6 299/4/6
f 297/4/6 298/4/6 299/4/6
f 296/4/6 297/4/6 299/4/6
f 295/4/6 296/4/6 299/4/6
f 294/4/6 295/4/6 299/4/6
f 299/4/6 298/4/6 300/4/6
f 300/4/6 298/4/6 301/4/6
f 301/4/6 298/4/6 302/4/6
f 302/4/6 298/4/6 303/4/6
f 303/4/6 298/4/6 304/4/6
f 305/4/6 306/4/6 313/4/6
f 313/4/6 306/4/6 314/4/6
f 307/5/6 308/5/6 315/5/6
f 315/5/6 308/5/6 316/5/6
f 309/4/6 310/4/6 317/4/6
f 317/4/6 310/4/6 318/4/6
f 311/4/6 312/4/6 319/4/6
f 319/4/6 312/4/6 320/4/6
f 321/4/6 322/4/6 329/4/6
f 329/4/6 322/4/6 330/4/6
f 323/4/6 324/4/6 331/4/6
f 331/4/6 324/4/6 332/4/6
f 325/5/6 326/5/6 333/5/6
f 333/5/6 326/5/6 334/5/6
f 327/4/6 328/4/6 335/4/6
f 335/4/6 328/4/6 336/4/6
f 337/5/6 338/5/6 343/5/6
f 343/5/6 338/5/6 344/5/6
f 339/4/6 340/4/6 345/4/6
f 345/4/6 340/4/6 346/4/6
f 341/4/6 342/4/6 347/4/6
f 347/4/6 342/4/6 348/4/6
f 349/4/6 350/4/6 356/4/6
f 356/4/6 350/4/6 357/4/6
f 351/5/6 352/5/6 358/5/6
f 352/4/6 353/4/6 359/4/6
f 358/5/6 352/5/6 359/5/6
f 359/4/6 353/4/6 360/4/6
f 354/4/6 355/4/6 361/4/6
f 361/4/6 355/4/6 362/4/6
