# MagicaVoxel @ Ephtracy

# group
o 

# material
mtllib Box10.mtl
usemtl palette

# normals
vn -1 0 0
vn 1 0 0
vn 0 0 1
vn 0 0 -1
vn 0 -1 0
vn 0 1 0

# texcoords
vt 0.853516 0.5
vt 0.916016 0.5
vt 0.978516 0.5
vt 0.982422 0.5

# verts
v -0.4 0 0.4
v -0.4 0 -0.4
v -0.4 0.2 0.4
v -0.4 0.2 -0.4
v -0.4 0.3 0.4
v -0.4 0.3 -0.4
v -0.2 0.3 0
v -0.2 0.3 -0.1
v -0.2 0.3 -0.4
v -0.2 0.4 0
v -0.2 0.4 -0.1
v -0.2 0.4 -0.2
v -0.2 0.4 -0.3
v -0.2 0.5 -0.2
v -0.2 0.5 -0.3
v -0.2 0.6 -0.1
v -0.2 0.6 -0.2
v -0.2 0.6 -0.3
v -0.2 0.6 -0.4
v -0.2 0.7 0
v -0.2 0.7 -0.1
v -0.2 0.7 -0.2
v -0.2 0.7 -0.3
v 0.1 0.5 -0.1
v 0.1 0.5 -0.4
v 0.1 0.6 0
v 0.1 0.6 -0.1
v 0.1 0.6 -0.2
v 0.1 0.6 -0.3
v 0.1 0.6 -0.4
v 0.1 0.7 0
v 0.1 0.7 -0.1
v 0.1 0.7 -0.2
v 0.1 0.7 -0.3
v -0.1 0.5 -0.1
v -0.1 0.5 -0.4
v -0.1 0.6 0
v -0.1 0.6 -0.1
v -0.1 0.6 -0.2
v -0.1 0.6 -0.3
v -0.1 0.6 -0.4
v -0.1 0.7 0
v -0.1 0.7 -0.1
v -0.1 0.7 -0.2
v -0.1 0.7 -0.3
v 0.2 0.3 0
v 0.2 0.3 -0.1
v 0.2 0.3 -0.4
v 0.2 0.4 -0.2
v 0.2 0.4 -0.3
v 0.2 0.5 0
v 0.2 0.5 -0.1
v 0.2 0.5 -0.2
v 0.2 0.5 -0.3
v 0.2 0.6 -0.1
v 0.2 0.6 -0.2
v 0.2 0.6 -0.3
v 0.2 0.6 -0.4
v 0.2 0.7 0
v 0.2 0.7 -0.1
v 0.2 0.7 -0.2
v 0.2 0.7 -0.3
v 0.4 0 0.4
v 0.4 0 -0.4
v 0.4 0.2 0.4
v 0.4 0.2 -0.4
v 0.4 0.3 0.4
v 0.4 0.3 -0.4
v -0.4 0 0.4
v -0.4 0.2 0.4
v -0.4 0.3 0.4
v 0.4 0 0.4
v 0.4 0.2 0.4
v 0.4 0.3 0.4
v -0.2 0.3 0
v -0.2 0.4 0
v -0.2 0.7 0
v -0.1 0.3 0
v -0.1 0.4 0
v -0.1 0.5 0
v -0.1 0.6 0
v -0.1 0.7 0
v 0 0.5 0
v 0 0.6 0
v 0.1 0.3 0
v 0.1 0.5 0
v 0.1 0.6 0
v 0.1 0.7 0
v 0.2 0.3 0
v 0.2 0.5 0
v 0.2 0.7 0
v -0.2 0.6 -0.2
v -0.2 0.7 -0.2
v -0.1 0.6 -0.2
v -0.1 0.7 -0.2
v 0.1 0.6 -0.2
v 0.1 0.7 -0.2
v 0.2 0.6 -0.2
v 0.2 0.7 -0.2
v -0.2 0.6 -0.1
v -0.2 0.7 -0.1
v -0.1 0.5 -0.1
v -0.1 0.6 -0.1
v -0.1 0.7 -0.1
v 0 0.5 -0.1
v 0 0.6 -0.1
v 0.1 0.5 -0.1
v 0.1 0.6 -0.1
v 0.1 0.7 -0.1
v 0.2 0.6 -0.1
v 0.2 0.7 -0.1
v -0.2 0.6 -0.3
v -0.2 0.7 -0.3
v -0.1 0.6 -0.3
v -0.1 0.7 -0.3
v 0.1 0.6 -0.3
v 0.1 0.7 -0.3
v 0.2 0.6 -0.3
v 0.2 0.7 -0.3
v -0.4 0 -0.4
v -0.4 0.2 -0.4
v -0.4 0.3 -0.4
v -0.2 0.3 -0.4
v -0.2 0.6 -0.4
v -0.1 0.5 -0.4
v -0.1 0.6 -0.4
v 0.1 0.5 -0.4
v 0.1 0.6 -0.4
v 0.2 0.3 -0.4
v 0.2 0.6 -0.4
v 0.4 0 -0.4
v 0.4 0.2 -0.4
v 0.4 0.3 -0.4
v -0.4 0 0.4
v 0.4 0 0.4
v -0.4 0 -0.4
v 0.4 0 -0.4
v -0.4 0.3 0.4
v 0.4 0.3 0.4
v -0.2 0.3 0
v -0.1 0.3 0
v 0.1 0.3 0
v 0.2 0.3 0
v -0.2 0.3 -0.1
v 0.2 0.3 -0.1
v -0.4 0.3 -0.4
v -0.2 0.3 -0.4
v 0.2 0.3 -0.4
v 0.4 0.3 -0.4
v -0.1 0.5 -0.1
v 0 0.5 -0.1
v 0.1 0.5 -0.1
v -0.1 0.5 -0.4
v 0.1 0.5 -0.4
v -0.1 0.6 0
v 0 0.6 0
v 0.1 0.6 0
v -0.2 0.6 -0.1
v -0.1 0.6 -0.1
v 0 0.6 -0.1
v 0.1 0.6 -0.1
v 0.2 0.6 -0.1
v -0.2 0.6 -0.2
v -0.1 0.6 -0.2
v 0.1 0.6 -0.2
v 0.2 0.6 -0.2
v -0.2 0.6 -0.3
v -0.1 0.6 -0.3
v 0.1 0.6 -0.3
v 0.2 0.6 -0.3
v -0.2 0.6 -0.4
v -0.1 0.6 -0.4
v 0.1 0.6 -0.4
v 0.2 0.6 -0.4
v -0.2 0.7 0
v -0.1 0.7 0
v 0.1 0.7 0
v 0.2 0.7 0
v -0.2 0.7 -0.1
v -0.1 0.7 -0.1
v 0.1 0.7 -0.1
v 0.2 0.7 -0.1
v -0.2 0.7 -0.2
v -0.1 0.7 -0.2
v 0.1 0.7 -0.2
v 0.2 0.7 -0.2
v -0.2 0.7 -0.3
v -0.1 0.7 -0.3
v 0.1 0.7 -0.3
v 0.2 0.7 -0.3

# faces
f 3/2/1 2/2/1 1/2/1
f 4/2/1 2/2/1 3/2/1
f 5/1/1 4/1/1 3/1/1
f 6/1/1 4/1/1 5/1/1
f 10/4/1 8/4/1 7/4/1
f 11/3/1 9/3/1 8/3/1
f 11/4/1 8/4/1 10/4/1
f 12/3/1 9/3/1 11/3/1
f 13/3/1 9/3/1 12/3/1
f 14/3/1 11/3/1 10/3/1
f 14/3/1 12/3/1 11/3/1
f 14/4/1 13/4/1 12/4/1
f 15/3/1 9/3/1 13/3/1
f 15/4/1 13/4/1 14/4/1
f 16/3/1 14/3/1 10/3/1
f 16/3/1 15/3/1 14/3/1
f 17/3/1 15/3/1 16/3/1
f 18/3/1 9/3/1 15/3/1
f 18/3/1 15/3/1 17/3/1
f 19/3/1 9/3/1 18/3/1
f 20/3/1 16/3/1 10/3/1
f 21/3/1 16/3/1 20/3/1
f 22/3/1 18/3/1 17/3/1
f 23/3/1 18/3/1 22/3/1
f 27/3/1 25/3/1 24/3/1
f 28/3/1 25/3/1 27/3/1
f 29/3/1 25/3/1 28/3/1
f 30/3/1 25/3/1 29/3/1
f 31/3/1 27/3/1 26/3/1
f 32/3/1 27/3/1 31/3/1
f 33/3/1 29/3/1 28/3/1
f 34/3/1 29/3/1 33/3/1
f 35/3/2 36/3/2 38/3/2
f 38/3/2 36/3/2 39/3/2
f 39/3/2 36/3/2 40/3/2
f 40/3/2 36/3/2 41/3/2
f 37/3/2 38/3/2 42/3/2
f 42/3/2 38/3/2 43/3/2
f 39/3/2 40/3/2 44/3/2
f 44/3/2 40/3/2 45/3/2
f 47/3/2 48/3/2 49/3/2
f 49/3/2 48/3/2 50/3/2
f 46/4/2 47/4/2 51/4/2
f 47/3/2 49/3/2 52/3/2
f 51/4/2 47/4/2 52/4/2
f 49/4/2 50/4/2 53/4/2
f 52/3/2 49/3/2 53/3/2
f 50/3/2 48/3/2 54/3/2
f 53/4/2 50/4/2 54/4/2
f 52/3/2 53/3/2 55/3/2
f 51/3/2 52/3/2 55/3/2
f 53/3/2 54/3/2 55/3/2
f 55/3/2 54/3/2 56/3/2
f 54/3/2 48/3/2 57/3/2
f 56/3/2 54/3/2 57/3/2
f 57/3/2 48/3/2 58/3/2
f 51/3/2 55/3/2 59/3/2
f 59/3/2 55/3/2 60/3/2
f 56/3/2 57/3/2 61/3/2
f 61/3/2 57/3/2 62/3/2
f 63/2/2 64/2/2 65/2/2
f 65/2/2 64/2/2 66/2/2
f 65/1/2 66/1/2 67/1/2
f 67/1/2 66/1/2 68/1/2
f 72/2/3 70/2/3 69/2/3
f 73/1/3 71/1/3 70/1/3
f 73/2/3 70/2/3 72/2/3
f 74/1/3 71/1/3 73/1/3
f 78/4/3 76/4/3 75/4/3
f 79/3/3 77/3/3 76/3/3
f 79/4/3 76/4/3 78/4/3
f 80/3/3 77/3/3 79/3/3
f 81/3/3 77/3/3 80/3/3
f 82/3/3 77/3/3 81/3/3
f 83/3/3 79/3/3 78/3/3
f 83/3/3 80/3/3 79/3/3
f 83/4/3 81/4/3 80/4/3
f 84/4/3 81/4/3 83/4/3
f 85/3/3 83/3/3 78/3/3
f 85/3/3 84/3/3 83/3/3
f 86/3/3 84/3/3 85/3/3
f 87/3/3 84/3/3 86/3/3
f 89/4/3 86/4/3 85/4/3
f 90/3/3 87/3/3 86/3/3
f 90/4/3 86/4/3 89/4/3
f 90/3/3 88/3/3 87/3/3
f 91/3/3 88/3/3 90/3/3
f 94/3/3 93/3/3 92/3/3
f 95/3/3 93/3/3 94/3/3
f 98/3/3 97/3/3 96/3/3
f 99/3/3 97/3/3 98/3/3
f 100/3/4 101/3/4 103/3/4
f 103/3/4 101/3/4 104/3/4
f 102/4/4 103/4/4 105/4/4
f 105/4/4 103/4/4 106/4/4
f 105/3/4 106/3/4 107/3/4
f 107/3/4 106/3/4 108/3/4
f 108/3/4 109/3/4 110/3/4
f 110/3/4 109/3/4 111/3/4
f 112/3/4 113/3/4 114/3/4
f 114/3/4 113/3/4 115/3/4
f 116/3/4 117/3/4 118/3/4
f 118/3/4 117/3/4 119/3/4
f 121/1/4 122/1/4 123/1/4
f 123/3/4 124/3/4 125/3/4
f 125/3/4 124/3/4 126/3/4
f 123/3/4 125/3/4 127/3/4
f 121/1/4 123/1/4 129/1/4
f 127/3/4 128/3/4 129/3/4
f 123/3/4 127/3/4 129/3/4
f 129/3/4 128/3/4 130/3/4
f 120/2/4 121/2/4 131/2/4
f 121/1/4 129/1/4 132/1/4
f 131/2/4 121/2/4 132/2/4
f 132/1/4 129/1/4 133/1/4
f 136/2/5 135/2/5 134/2/5
f 137/2/5 135/2/5 136/2/5
f 138/1/6 139/1/6 140/1/6
f 140/1/6 139/1/6 141/1/6
f 141/1/6 139/1/6 142/1/6
f 142/1/6 139/1/6 143/1/6
f 138/1/6 140/1/6 144/1/6
f 143/1/6 139/1/6 145/1/6
f 138/1/6 144/1/6 146/1/6
f 146/1/6 144/1/6 147/1/6
f 145/1/6 139/1/6 148/1/6
f 148/1/6 139/1/6 149/1/6
f 150/3/6 151/3/6 153/3/6
f 151/3/6 152/3/6 153/3/6
f 153/3/6 152/3/6 154/3/6
f 155/4/6 156/4/6 159/4/6
f 156/3/6 157/3/6 160/3/6
f 159/4/6 156/4/6 160/4/6
f 160/3/6 157/3/6 161/3/6
f 158/3/6 159/3/6 163/3/6
f 163/3/6 159/3/6 164/3/6
f 161/3/6 162/3/6 165/3/6
f 165/3/6 162/3/6 166/3/6
f 167/3/6 168/3/6 171/3/6
f 171/3/6 168/3/6 172/3/6
f 169/3/6 170/3/6 173/3/6
f 173/3/6 170/3/6 174/3/6
f 175/3/6 176/3/6 179/3/6
f 179/3/6 176/3/6 180/3/6
f 177/3/6 178/3/6 181/3/6
f 181/3/6 178/3/6 182/3/6
f 183/3/6 184/3/6 187/3/6
f 187/3/6 184/3/6 188/3/6
f 185/3/6 186/3/6 189/3/6
f 189/3/6 186/3/6 190/3/6
