# MagicaVoxel @ Ephtracy

# group
o 

# material
mtllib Box6.mtl
usemtl palette

# normals
vn -1 0 0
vn 1 0 0
vn 0 0 1
vn 0 0 -1
vn 0 -1 0
vn 0 1 0

# texcoords
vt 0.853516 0.5
vt 0.865234 0.5
vt 0.916016 0.5

# verts
v -0.4 0 0.4
v -0.4 0 -0.4
v -0.4 0.2 0.4
v -0.4 0.2 -0.4
v -0.4 0.3 0.4
v -0.4 0.3 -0.4
v -0.2 0.3 0
v -0.2 0.3 -0.1
v -0.2 0.4 0.1
v -0.2 0.4 0
v -0.2 0.5 0.1
v -0.2 0.5 0
v -0.2 0.5 -0.1
v -0.2 0.6 0
v -0.2 0.6 -0.1
v -0.1 0.3 0.1
v -0.1 0.3 0
v -0.1 0.4 0.1
v -0.1 0.4 0
v -0.1 0.5 0.1
v -0.1 0.5 0
v -0.1 0.5 -0.1
v -0.1 0.5 -0.2
v -0.1 0.6 0.1
v -0.1 0.6 0
v -0.1 0.6 -0.1
v -0.1 0.6 -0.2
v -0.1 0.7 0.1
v -0.1 0.7 -0.1
v -0.1 0.8 0.1
v -0.1 0.8 -0.1
v 0 0.6 0
v 0 0.6 -0.1
v 0 0.7 0
v 0 0.7 -0.1
v 0 0.7 -0.2
v 0 0.8 -0.1
v 0 0.8 -0.2
v 0 0.3 0.1
v 0 0.3 0
v 0 0.5 0.1
v 0 0.5 0
v 0.1 0.3 0
v 0.1 0.3 -0.1
v 0.1 0.5 0.1
v 0.1 0.5 0
v 0.1 0.5 -0.1
v 0.1 0.5 -0.2
v 0.1 0.6 0.1
v 0.1 0.6 0
v 0.1 0.6 -0.1
v 0.1 0.6 -0.2
v 0.1 0.7 -0.1
v 0.1 0.7 -0.2
v 0.1 0.8 -0.1
v 0.1 0.8 -0.2
v 0.2 0.6 0
v 0.2 0.6 -0.1
v 0.2 0.7 0.1
v 0.2 0.7 0
v 0.2 0.8 0.1
v 0.2 0.8 -0.1
v 0.4 0 0.4
v 0.4 0 -0.4
v 0.4 0.2 0.4
v 0.4 0.2 -0.4
v 0.4 0.3 0.4
v 0.4 0.3 -0.4
v -0.4 0 0.4
v -0.4 0.2 0.4
v -0.4 0.3 0.4
v 0.4 0 0.4
v 0.4 0.2 0.4
v 0.4 0.3 0.4
v -0.2 0.4 0.1
v -0.2 0.5 0.1
v -0.1 0.3 0.1
v -0.1 0.4 0.1
v -0.1 0.5 0.1
v -0.1 0.6 0.1
v -0.1 0.7 0.1
v -0.1 0.8 0.1
v 0 0.3 0.1
v 0 0.5 0.1
v 0.1 0.5 0.1
v 0.1 0.6 0.1
v 0.2 0.7 0.1
v 0.2 0.8 0.1
v -0.2 0.3 0
v -0.2 0.4 0
v -0.2 0.5 0
v -0.2 0.6 0
v -0.1 0.3 0
v -0.1 0.4 0
v -0.1 0.5 0
v -0.1 0.6 0
v 0 0.3 0
v 0 0.5 0
v 0 0.6 0
v 0 0.7 0
v 0.1 0.3 0
v 0.1 0.5 0
v 0.1 0.6 0
v 0.1 0.7 0
v 0.2 0.6 0
v 0.2 0.7 0
v -0.2 0.3 -0.1
v -0.2 0.5 -0.1
v -0.2 0.6 -0.1
v -0.1 0.5 -0.1
v -0.1 0.6 -0.1
v -0.1 0.7 -0.1
v -0.1 0.8 -0.1
v 0 0.6 -0.1
v 0 0.7 -0.1
v 0 0.8 -0.1
v 0.1 0.3 -0.1
v 0.1 0.5 -0.1
v 0.1 0.6 -0.1
v 0.1 0.7 -0.1
v 0.1 0.8 -0.1
v 0.2 0.6 -0.1
v 0.2 0.8 -0.1
v -0.1 0.5 -0.2
v -0.1 0.6 -0.2
v 0 0.7 -0.2
v 0 0.8 -0.2
v 0.1 0.5 -0.2
v 0.1 0.6 -0.2
v 0.1 0.7 -0.2
v 0.1 0.8 -0.2
v -0.4 0 -0.4
v -0.4 0.2 -0.4
v -0.4 0.3 -0.4
v 0.4 0 -0.4
v 0.4 0.2 -0.4
v 0.4 0.3 -0.4
v -0.4 0 0.4
v 0.4 0 0.4
v -0.4 0 -0.4
v 0.4 0 -0.4
v -0.2 0.4 0.1
v -0.1 0.4 0.1
v -0.2 0.4 0
v -0.1 0.4 0
v 0 0.5 0.1
v 0.1 0.5 0.1
v 0 0.5 0
v 0.1 0.5 0
v -0.1 0.5 -0.1
v 0.1 0.5 -0.1
v -0.1 0.5 -0.2
v 0.1 0.5 -0.2
v 0.1 0.6 0
v 0.2 0.6 0
v 0.1 0.6 -0.1
v 0.2 0.6 -0.1
v -0.1 0.7 0.1
v 0.2 0.7 0.1
v 0 0.7 0
v 0.1 0.7 0
v 0.2 0.7 0
v -0.1 0.7 -0.1
v 0 0.7 -0.1
v 0.1 0.7 -0.1
v 0 0.7 -0.2
v 0.1 0.7 -0.2
v -0.4 0.3 0.4
v 0.4 0.3 0.4
v -0.1 0.3 0.1
v 0 0.3 0.1
v -0.2 0.3 0
v -0.1 0.3 0
v 0 0.3 0
v 0.1 0.3 0
v -0.2 0.3 -0.1
v 0.1 0.3 -0.1
v -0.4 0.3 -0.4
v 0.4 0.3 -0.4
v -0.2 0.5 0.1
v -0.1 0.5 0.1
v -0.2 0.5 0
v -0.1 0.5 0
v -0.1 0.6 0.1
v 0.1 0.6 0.1
v -0.2 0.6 0
v -0.1 0.6 0
v 0 0.6 0
v 0.1 0.6 0
v -0.2 0.6 -0.1
v -0.1 0.6 -0.1
v 0 0.6 -0.1
v 0.1 0.6 -0.1
v -0.1 0.6 -0.2
v 0.1 0.6 -0.2
v -0.1 0.8 0.1
v 0.2 0.8 0.1
v -0.1 0.8 -0.1
v 0 0.8 -0.1
v 0.1 0.8 -0.1
v 0.2 0.8 -0.1
v 0 0.8 -0.2
v 0.1 0.8 -0.2

# faces
f 3/3/1 2/3/1 1/3/1
f 4/3/1 2/3/1 3/3/1
f 5/1/1 4/1/1 3/1/1
f 6/1/1 4/1/1 5/1/1
f 10/3/1 8/3/1 7/3/1
f 11/2/1 10/2/1 9/2/1
f 12/3/1 8/3/1 10/3/1
f 12/2/1 10/2/1 11/2/1
f 13/3/1 8/3/1 12/3/1
f 14/2/1 13/2/1 12/2/1
f 15/2/1 13/2/1 14/2/1
f 18/3/1 17/3/1 16/3/1
f 19/3/1 17/3/1 18/3/1
f 24/2/1 21/2/1 20/2/1
f 25/2/1 21/2/1 24/2/1
f 26/2/1 23/2/1 22/2/1
f 27/2/1 23/2/1 26/2/1
f 30/2/1 29/2/1 28/2/1
f 31/2/1 29/2/1 30/2/1
f 34/3/1 33/3/1 32/3/1
f 35/3/1 33/3/1 34/3/1
f 37/2/1 36/2/1 35/2/1
f 38/2/1 36/2/1 37/2/1
f 39/3/2 40/3/2 41/3/2
f 41/3/2 40/3/2 42/3/2
f 43/3/2 44/3/2 46/3/2
f 46/3/2 44/3/2 47/3/2
f 45/2/2 46/2/2 49/2/2
f 46/3/2 47/3/2 50/3/2
f 49/2/2 46/2/2 50/2/2
f 47/2/2 48/2/2 51/2/2
f 50/3/2 47/3/2 51/3/2
f 51/2/2 48/2/2 52/2/2
f 53/2/2 54/2/2 55/2/2
f 55/2/2 54/2/2 56/2/2
f 57/2/2 58/2/2 60/2/2
f 59/2/2 60/2/2 61/2/2
f 60/2/2 58/2/2 62/2/2
f 61/2/2 60/2/2 62/2/2
f 63/3/2 64/3/2 65/3/2
f 65/3/2 64/3/2 66/3/2
f 65/1/2 66/1/2 67/1/2
f 67/1/2 66/1/2 68/1/2
f 72/3/3 70/3/3 69/3/3
f 73/1/3 71/1/3 70/1/3
f 73/3/3 70/3/3 72/3/3
f 74/1/3 71/1/3 73/1/3
f 78/2/3 76/2/3 75/2/3
f 79/2/3 76/2/3 78/2/3
f 83/3/3 78/3/3 77/3/3
f 83/3/3 79/3/3 78/3/3
f 84/2/3 80/2/3 79/2/3
f 84/3/3 79/3/3 83/3/3
f 85/2/3 80/2/3 84/2/3
f 86/2/3 80/2/3 85/2/3
f 87/2/3 82/2/3 81/2/3
f 88/2/3 82/2/3 87/2/3
f 93/3/3 90/3/3 89/3/3
f 94/3/3 90/3/3 93/3/3
f 95/2/3 92/2/3 91/2/3
f 96/2/3 92/2/3 95/2/3
f 101/3/3 98/3/3 97/3/3
f 102/3/3 98/3/3 101/3/3
f 103/3/3 100/3/3 99/3/3
f 104/3/3 100/3/3 103/3/3
f 105/2/3 104/2/3 103/2/3
f 106/2/3 104/2/3 105/2/3
f 107/3/4 108/3/4 110/3/4
f 108/2/4 109/2/4 110/2/4
f 110/2/4 109/2/4 111/2/4
f 112/2/4 113/2/4 115/2/4
f 115/2/4 113/2/4 116/2/4
f 107/3/4 110/3/4 117/3/4
f 117/3/4 110/3/4 118/3/4
f 114/3/4 115/3/4 119/3/4
f 119/3/4 115/3/4 120/3/4
f 120/2/4 121/2/4 122/2/4
f 119/2/4 120/2/4 122/2/4
f 122/2/4 121/2/4 123/2/4
f 124/2/4 125/2/4 128/2/4
f 128/2/4 125/2/4 129/2/4
f 126/2/4 127/2/4 130/2/4
f 130/2/4 127/2/4 131/2/4
f 132/3/4 133/3/4 135/3/4
f 133/1/4 134/1/4 136/1/4
f 135/3/4 133/3/4 136/3/4
f 136/1/4 134/1/4 137/1/4
f 140/3/5 139/3/5 138/3/5
f 141/3/5 139/3/5 140/3/5
f 144/2/5 143/2/5 142/2/5
f 145/2/5 143/2/5 144/2/5
f 148/2/5 147/2/5 146/2/5
f 149/2/5 147/2/5 148/2/5
f 152/2/5 151/2/5 150/2/5
f 153/2/5 151/2/5 152/2/5
f 156/2/5 155/2/5 154/2/5
f 157/2/5 155/2/5 156/2/5
f 160/2/5 159/2/5 158/2/5
f 161/2/5 159/2/5 160/2/5
f 162/2/5 159/2/5 161/2/5
f 163/2/5 160/2/5 158/2/5
f 164/2/5 160/2/5 163/2/5
f 166/2/5 165/2/5 164/2/5
f 167/2/5 165/2/5 166/2/5
f 168/1/6 169/1/6 170/1/6
f 170/1/6 169/1/6 171/1/6
f 168/1/6 170/1/6 172/1/6
f 172/1/6 170/1/6 173/1/6
f 171/1/6 169/1/6 174/1/6
f 174/1/6 169/1/6 175/1/6
f 168/1/6 172/1/6 176/1/6
f 175/1/6 169/1/6 177/1/6
f 168/1/6 176/1/6 178/1/6
f 176/1/6 177/1/6 178/1/6
f 177/1/6 169/1/6 179/1/6
f 178/1/6 177/1/6 179/1/6
f 180/2/6 181/2/6 182/2/6
f 182/2/6 181/2/6 183/2/6
f 184/2/6 185/2/6 187/2/6
f 187/2/6 185/2/6 188/2/6
f 188/2/6 185/2/6 189/2/6
f 186/2/6 187/2/6 190/2/6
f 187/3/6 188/3/6 191/3/6
f 190/2/6 187/2/6 191/2/6
f 191/3/6 188/3/6 192/3/6
f 192/2/6 193/2/6 194/2/6
f 191/2/6 192/2/6 194/2/6
f 194/2/6 193/2/6 195/2/6
f 196/2/6 197/2/6 198/2/6
f 198/2/6 197/2/6 199/2/6
f 199/2/6 197/2/6 200/2/6
f 200/2/6 197/2/6 201/2/6
f 199/2/6 200/2/6 202/2/6
f 202/2/6 200/2/6 203/2/6
