# MagicaVoxel @ Ephtracy

# group
o 

# material
mtllib Box7.mtl
usemtl palette

# normals
vn -1 0 0
vn 1 0 0
vn 0 0 1
vn 0 0 -1
vn 0 -1 0
vn 0 1 0

# texcoords
vt 0.853516 0.5
vt 0.884766 0.5
vt 0.916016 0.5
vt 0.927734 0.5

# verts
v -0.4 0 0.4
v -0.4 0 -0.4
v -0.4 0.2 0.4
v -0.4 0.2 0.1
v -0.4 0.2 -0.1
v -0.4 0.2 -0.4
v -0.4 0.3 0.4
v -0.4 0.3 0.1
v -0.4 0.3 -0.1
v -0.4 0.3 -0.4
v -0.2 0.6 0.1
v -0.2 0.6 0
v -0.2 0.7 0.1
v -0.2 0.7 0
v -0.1 0.3 0.1
v -0.1 0.3 0
v -0.1 0.6 0.1
v -0.1 0.6 0
v -0.1 0.6 -0.1
v -0.1 0.7 0
v -0.1 0.7 -0.1
v 0 0.3 0.1
v 0 0.3 0
v 0 0.6 0.1
v 0 0.6 0
v 0 0.6 -0.1
v 0 0.7 0
v 0 0.7 -0.1
v 0.1 0.6 0.1
v 0.1 0.6 0
v 0.1 0.7 0.1
v 0.1 0.7 0
v 0.4 0 0.4
v 0.4 0 -0.4
v 0.4 0.2 0.4
v 0.4 0.2 0.1
v 0.4 0.2 -0.1
v 0.4 0.2 -0.4
v 0.4 0.3 0.4
v 0.4 0.3 0.1
v 0.4 0.3 -0.1
v 0.4 0.3 -0.4
v -0.4 0 0.4
v -0.4 0.2 0.4
v -0.4 0.3 0.4
v 0.4 0 0.4
v 0.4 0.2 0.4
v 0.4 0.3 0.4
v -0.2 0.6 0.1
v -0.2 0.7 0.1
v -0.1 0.3 0.1
v -0.1 0.6 0.1
v 0 0.3 0.1
v 0 0.6 0.1
v 0.1 0.6 0.1
v 0.1 0.7 0.1
v -0.2 0.6 0
v -0.2 0.7 0
v -0.1 0.3 0
v -0.1 0.6 0
v -0.1 0.7 0
v 0 0.3 0
v 0 0.6 0
v 0 0.7 0
v 0.1 0.6 0
v 0.1 0.7 0
v -0.1 0.6 -0.1
v -0.1 0.7 -0.1
v 0 0.6 -0.1
v 0 0.7 -0.1
v -0.4 0 -0.4
v -0.4 0.2 -0.4
v -0.4 0.3 -0.4
v -0.1 0.2 -0.4
v -0.1 0.3 -0.4
v 0.1 0.2 -0.4
v 0.1 0.3 -0.4
v 0.4 0 -0.4
v 0.4 0.2 -0.4
v 0.4 0.3 -0.4
v -0.4 0 0.4
v 0.4 0 0.4
v -0.4 0 -0.4
v 0.4 0 -0.4
v -0.2 0.6 0.1
v -0.1 0.6 0.1
v 0 0.6 0.1
v 0.1 0.6 0.1
v -0.2 0.6 0
v -0.1 0.6 0
v 0 0.6 0
v 0.1 0.6 0
v -0.1 0.6 -0.1
v 0 0.6 -0.1
v -0.4 0.3 0.4
v 0.4 0.3 0.4
v -0.4 0.3 0.1
v -0.2 0.3 0.1
v -0.1 0.3 0.1
v 0 0.3 0.1
v 0.2 0.3 0.1
v 0.4 0.3 0.1
v -0.2 0.3 0
v -0.1 0.3 0
v 0 0.3 0
v 0.2 0.3 0
v -0.4 0.3 -0.1
v -0.2 0.3 -0.1
v 0.2 0.3 -0.1
v 0.4 0.3 -0.1
v -0.2 0.3 -0.2
v -0.1 0.3 -0.2
v 0.1 0.3 -0.2
v 0.2 0.3 -0.2
v -0.4 0.3 -0.4
v -0.1 0.3 -0.4
v 0.1 0.3 -0.4
v 0.4 0.3 -0.4
v -0.2 0.7 0.1
v 0.1 0.7 0.1
v -0.2 0.7 0
v -0.1 0.7 0
v 0 0.7 0
v 0.1 0.7 0
v -0.1 0.7 -0.1
v 0 0.7 -0.1

# faces
f 3/3/1 2/3/1 1/3/1
f 4/3/1 2/3/1 3/3/1
f 5/3/1 2/3/1 4/3/1
f 6/3/1 2/3/1 5/3/1
f 7/1/1 4/1/1 3/1/1
f 8/2/1 5/2/1 4/2/1
f 8/1/1 4/1/1 7/1/1
f 9/1/1 6/1/1 5/1/1
f 9/2/1 5/2/1 8/2/1
f 10/1/1 6/1/1 9/1/1
f 13/4/1 12/4/1 11/4/1
f 14/4/1 12/4/1 13/4/1
f 17/4/1 16/4/1 15/4/1
f 18/4/1 16/4/1 17/4/1
f 20/4/1 19/4/1 18/4/1
f 21/4/1 19/4/1 20/4/1
f 22/4/2 23/4/2 24/4/2
f 24/4/2 23/4/2 25/4/2
f 25/4/2 26/4/2 27/4/2
f 27/4/2 26/4/2 28/4/2
f 29/4/2 30/4/2 31/4/2
f 31/4/2 30/4/2 32/4/2
f 33/3/2 34/3/2 35/3/2
f 35/3/2 34/3/2 36/3/2
f 36/3/2 34/3/2 37/3/2
f 37/3/2 34/3/2 38/3/2
f 35/1/2 36/1/2 39/1/2
f 36/2/2 37/2/2 40/2/2
f 39/1/2 36/1/2 40/1/2
f 37/1/2 38/1/2 41/1/2
f 40/2/2 37/2/2 41/2/2
f 41/1/2 38/1/2 42/1/2
f 46/3/3 44/3/3 43/3/3
f 47/1/3 45/1/3 44/1/3
f 47/3/3 44/3/3 46/3/3
f 48/1/3 45/1/3 47/1/3
f 52/4/3 50/4/3 49/4/3
f 53/4/3 52/4/3 51/4/3
f 54/4/3 50/4/3 52/4/3
f 54/4/3 52/4/3 53/4/3
f 55/4/3 50/4/3 54/4/3
f 56/4/3 50/4/3 55/4/3
f 57/4/4 58/4/4 60/4/4
f 60/4/4 58/4/4 61/4/4
f 59/4/4 60/4/4 62/4/4
f 62/4/4 60/4/4 63/4/4
f 63/4/4 64/4/4 65/4/4
f 65/4/4 64/4/4 66/4/4
f 67/4/4 68/4/4 69/4/4
f 69/4/4 68/4/4 70/4/4
f 71/3/4 72/3/4 74/3/4
f 72/1/4 73/1/4 74/1/4
f 74/1/4 73/1/4 75/1/4
f 71/3/4 74/3/4 76/3/4
f 74/2/4 75/2/4 76/2/4
f 76/2/4 75/2/4 77/2/4
f 71/3/4 76/3/4 78/3/4
f 76/1/4 77/1/4 79/1/4
f 78/3/4 76/3/4 79/3/4
f 79/1/4 77/1/4 80/1/4
f 83/3/5 82/3/5 81/3/5
f 84/3/5 82/3/5 83/3/5
f 89/4/5 86/4/5 85/4/5
f 90/4/5 86/4/5 89/4/5
f 91/4/5 88/4/5 87/4/5
f 92/4/5 88/4/5 91/4/5
f 93/4/5 91/4/5 90/4/5
f 94/4/5 91/4/5 93/4/5
f 95/1/6 96/1/6 97/1/6
f 97/1/6 96/1/6 98/1/6
f 98/1/6 96/1/6 99/1/6
f 99/1/6 96/1/6 100/1/6
f 100/1/6 96/1/6 101/1/6
f 101/1/6 96/1/6 102/1/6
f 97/2/6 98/2/6 103/2/6
f 98/1/6 99/1/6 103/1/6
f 103/1/6 99/1/6 104/1/6
f 100/1/6 101/1/6 105/1/6
f 101/2/6 102/2/6 106/2/6
f 105/1/6 101/1/6 106/1/6
f 104/2/6 105/2/6 107/2/6
f 103/2/6 104/2/6 107/2/6
f 105/2/6 106/2/6 107/2/6
f 97/2/6 103/2/6 107/2/6
f 107/2/6 106/2/6 108/2/6
f 106/2/6 102/2/6 109/2/6
f 108/2/6 106/2/6 109/2/6
f 109/2/6 102/2/6 110/2/6
f 107/1/6 108/1/6 111/1/6
f 108/2/6 109/2/6 111/2/6
f 111/2/6 109/2/6 112/2/6
f 112/2/6 109/2/6 113/2/6
f 109/1/6 110/1/6 114/1/6
f 113/2/6 109/2/6 114/2/6
f 107/1/6 111/1/6 115/1/6
f 111/1/6 112/1/6 115/1/6
f 112/2/6 113/2/6 116/2/6
f 115/1/6 112/1/6 116/1/6
f 113/1/6 114/1/6 117/1/6
f 116/2/6 113/2/6 117/2/6
f 114/1/6 110/1/6 118/1/6
f 117/1/6 114/1/6 118/1/6
f 119/4/6 120/4/6 121/4/6
f 121/4/6 120/4/6 122/4/6
f 122/4/6 120/4/6 123/4/6
f 123/4/6 120/4/6 124/4/6
f 122/4/6 123/4/6 125/4/6
f 125/4/6 123/4/6 126/4/6
